<svg width="128" height="128" viewBox="0 0 128 128" fill="none" xmlns="http://www.w3.org/2000/svg">
    <rect width="128" height="128" rx="36" fill="#3A4625"/>
    <path d="M72.2647 20.2139H72.7227L72.7628 19.7577C72.8377 18.9054 72.9944 18.1204 73.212 17.3996C74.3916 13.4924 78.2994 10.4676 82.1711 11.205C84.1574 11.5834 86.2598 12.8336 87.2751 14.4767C87.754 15.2518 88.148 16.6823 88.2833 18.2523C88.4183 19.819 88.2859 21.4131 87.8063 22.5142L87.6956 22.7683L87.8524 22.9968C90.8129 27.3107 94.2923 36.7618 87.4068 49.2139H40.1225C33.237 36.7618 36.7164 27.3107 39.6769 22.9968L39.8338 22.7683L39.7231 22.5142C39.2434 21.4131 39.111 19.819 39.2461 18.2523C39.3814 16.6823 39.7753 15.2518 40.2542 14.4767C41.2695 12.8336 43.372 11.5834 45.3582 11.205C49.2299 10.4676 53.1377 13.4924 54.3173 17.3996C54.5349 18.1204 54.6917 18.9054 54.7666 19.7577L54.8067 20.2139H55.2647L72.2647 20.2139Z" fill="#6DC53B" stroke="black"/>
    <circle cx="80.9694" cy="18.7139" r="6" fill="white"/>
    <circle cx="80.5013" cy="19.2139" r="3" fill="black"/>
    <circle cx="46.7647" cy="18.7139" r="6" fill="white"/>
    <circle cx="47.2647" cy="19.2139" r="3" fill="black"/>
    <path d="M55 32C62.1672 35.9759 66.3242 36.0241 74 32" stroke="black"/>
    <path d="M24.0529 75.965C24.1921 71.7334 28.8599 69.2392 32.455 71.4755L64.6562 91.5058C68.2513 93.7421 68.0774 99.0317 64.3432 101.027L30.8958 118.899C27.1616 120.894 22.6677 118.099 22.8068 113.867L24.0529 75.965Z" fill="white" stroke="black"/>
    <rect x="17.2254" y="46.5" width="98.2746" height="55.2157" rx="5.5" fill="white" stroke="black"/>
    <path d="M46.1006 78.4162C45.5798 78.8589 44.999 79.2001 44.3584 79.4396C43.7178 79.674 43.0511 79.7912 42.3584 79.7912C41.8272 79.7912 41.3142 79.7209 40.8194 79.5803C40.3298 79.4449 39.8714 79.2521 39.4444 79.0021C39.0173 78.7469 38.6267 78.4449 38.2725 78.0959C37.9183 77.7417 37.6162 77.3511 37.3662 76.924C37.1162 76.4917 36.9209 76.0282 36.7803 75.5334C36.6449 75.0386 36.5772 74.5256 36.5772 73.9943C36.5772 73.4631 36.6449 72.9527 36.7803 72.4631C36.9209 71.9735 37.1162 71.5152 37.3662 71.0881C37.6162 70.6558 37.9183 70.2652 38.2725 69.9162C38.6267 69.562 39.0173 69.26 39.4444 69.01C39.8714 68.76 40.3298 68.5672 40.8194 68.4318C41.3142 68.2912 41.8272 68.2209 42.3584 68.2209C43.0511 68.2209 43.7178 68.3407 44.3584 68.5803C44.999 68.8146 45.5798 69.1532 46.1006 69.5959L44.9287 71.549C44.5902 71.2053 44.1996 70.937 43.7569 70.7443C43.3142 70.5464 42.848 70.4475 42.3584 70.4475C41.8688 70.4475 41.4079 70.5412 40.9756 70.7287C40.5485 70.9162 40.1735 71.1714 39.8506 71.4943C39.5277 71.812 39.2725 72.187 39.085 72.6193C38.8975 73.0464 38.8037 73.5047 38.8037 73.9943C38.8037 74.4891 38.8975 74.9527 39.085 75.385C39.2725 75.8172 39.5277 76.1949 39.8506 76.5178C40.1735 76.8407 40.5485 77.0959 40.9756 77.2834C41.4079 77.4709 41.8688 77.5646 42.3584 77.5646C42.6397 77.5646 42.9131 77.5308 43.1787 77.4631C43.4444 77.3954 43.697 77.3016 43.9365 77.1818V73.9943H46.1006V78.4162ZM55.6865 75.2912C55.6865 75.9162 55.5746 76.4995 55.3506 77.0412C55.1267 77.5777 54.822 78.0438 54.4365 78.4396C54.0511 78.8303 53.598 79.1402 53.0772 79.3693C52.5615 79.5933 52.0069 79.7053 51.4131 79.7053C50.8246 79.7053 50.2699 79.5933 49.749 79.3693C49.2334 79.1402 48.7803 78.8303 48.3897 78.4396C48.0043 78.0438 47.6996 77.5777 47.4756 77.0412C47.2517 76.4995 47.1397 75.9162 47.1397 75.2912C47.1397 74.6558 47.2517 74.0672 47.4756 73.5256C47.6996 72.9839 48.0043 72.5178 48.3897 72.1271C48.7803 71.7313 49.2334 71.4214 49.749 71.1975C50.2699 70.9735 50.8246 70.8615 51.4131 70.8615C52.0069 70.8615 52.5615 70.9683 53.0772 71.1818C53.598 71.3902 54.0511 71.6896 54.4365 72.0803C54.822 72.4657 55.1267 72.9318 55.3506 73.4787C55.5746 74.0204 55.6865 74.6245 55.6865 75.2912ZM53.5381 75.2912C53.5381 74.9475 53.4808 74.6376 53.3662 74.3615C53.2569 74.0803 53.1058 73.8407 52.9131 73.6428C52.7204 73.4396 52.4938 73.286 52.2334 73.1818C51.9782 73.0725 51.7048 73.0178 51.4131 73.0178C51.1214 73.0178 50.8454 73.0725 50.585 73.1818C50.3298 73.286 50.1058 73.4396 49.9131 73.6428C49.7256 73.8407 49.5772 74.0803 49.4678 74.3615C49.3584 74.6376 49.3037 74.9475 49.3037 75.2912C49.3037 75.6141 49.3584 75.9136 49.4678 76.1896C49.5772 76.4657 49.7256 76.7053 49.9131 76.9084C50.1058 77.1115 50.3298 77.273 50.585 77.3928C50.8454 77.5074 51.1214 77.5646 51.4131 77.5646C51.7048 77.5646 51.9782 77.51 52.2334 77.4006C52.4938 77.2912 52.7204 77.1376 52.9131 76.9396C53.1058 76.7417 53.2569 76.5021 53.3662 76.2209C53.4808 75.9396 53.5381 75.6297 53.5381 75.2912ZM64.9522 79.549H64.4365L63.6084 78.4006C63.4053 78.5829 63.1892 78.7547 62.96 78.9162C62.736 79.0725 62.499 79.2105 62.249 79.3303C61.999 79.4449 61.7412 79.536 61.4756 79.6037C61.2152 79.6714 60.9496 79.7053 60.6787 79.7053C60.0902 79.7053 59.5355 79.5959 59.0147 79.3771C58.499 79.1532 58.0459 78.8459 57.6553 78.4553C57.2699 78.0594 56.9652 77.5933 56.7412 77.0568C56.5173 76.5152 56.4053 75.9266 56.4053 75.2912C56.4053 74.661 56.5173 74.0751 56.7412 73.5334C56.9652 72.9917 57.2699 72.523 57.6553 72.1271C58.0459 71.7313 58.499 71.4214 59.0147 71.1975C59.5355 70.9735 60.0902 70.8615 60.6787 70.8615C60.8662 70.8615 61.0589 70.8771 61.2569 70.9084C61.46 70.9396 61.6553 70.9917 61.8428 71.0646C62.0355 71.1324 62.2152 71.2235 62.3819 71.3381C62.5485 71.4527 62.6892 71.5933 62.8037 71.76V67.8537H64.9522V79.549ZM62.8037 75.2912C62.8037 74.9995 62.7464 74.7183 62.6319 74.4475C62.5225 74.1714 62.3714 73.9292 62.1787 73.7209C61.986 73.5074 61.7595 73.3381 61.499 73.2131C61.2438 73.0829 60.9704 73.0178 60.6787 73.0178C60.3871 73.0178 60.111 73.0699 59.8506 73.174C59.5954 73.2782 59.3714 73.4292 59.1787 73.6271C58.9912 73.8199 58.8428 74.0568 58.7334 74.3381C58.624 74.6193 58.5694 74.937 58.5694 75.2912C58.5694 75.5985 58.624 75.8902 58.7334 76.1662C58.8428 76.4422 58.9912 76.6844 59.1787 76.8928C59.3714 77.1011 59.5954 77.2652 59.8506 77.385C60.111 77.5047 60.3871 77.5646 60.6787 77.5646C60.9704 77.5646 61.2438 77.5021 61.499 77.3771C61.7595 77.2469 61.986 77.0777 62.1787 76.8693C62.3714 76.6558 62.5225 76.4136 62.6319 76.1428C62.7464 75.8667 62.8037 75.5829 62.8037 75.2912ZM72.7334 78.5725C72.5615 78.7287 72.3767 78.8771 72.1787 79.0178C71.986 79.1532 71.7829 79.273 71.5694 79.3771C71.3558 79.4761 71.1345 79.5542 70.9053 79.6115C70.6813 79.674 70.4522 79.7053 70.2178 79.7053C69.7022 79.7053 69.2178 79.6141 68.7647 79.4318C68.3115 79.2495 67.9131 78.9917 67.5694 78.6584C67.2308 78.3199 66.9626 77.911 66.7647 77.4318C66.572 76.9475 66.4756 76.4058 66.4756 75.8068V71.1818H68.6006V75.8068C68.6006 76.0881 68.6423 76.3407 68.7256 76.5646C68.8142 76.7834 68.9313 76.9683 69.0772 77.1193C69.223 77.2704 69.3923 77.385 69.585 77.4631C69.7829 77.5412 69.9938 77.5803 70.2178 77.5803C70.4365 77.5803 70.6423 77.5308 70.835 77.4318C71.0329 77.3277 71.2048 77.1922 71.3506 77.0256C71.4964 76.8589 71.611 76.6714 71.6944 76.4631C71.7777 76.2495 71.8194 76.0308 71.8194 75.8068V71.1818H73.9522V79.549H73.4365L72.7334 78.5725ZM86.2256 79.549H84.1006V74.2365C84.1006 74.0907 84.072 73.9527 84.0147 73.8225C83.9626 73.6922 83.8871 73.5777 83.7881 73.4787C83.6892 73.3797 83.5746 73.3042 83.4444 73.2521C83.3142 73.1949 83.1761 73.1662 83.0303 73.1662C82.8845 73.1662 82.7464 73.1949 82.6162 73.2521C82.4912 73.3042 82.3793 73.3797 82.2803 73.4787C82.1865 73.5777 82.111 73.6922 82.0537 73.8225C82.0017 73.9527 81.9756 74.0907 81.9756 74.2365V79.549H79.8428V74.2365C79.8428 74.0907 79.8142 73.9527 79.7569 73.8225C79.7048 73.6922 79.6293 73.5777 79.5303 73.4787C79.4313 73.3797 79.3168 73.3042 79.1865 73.2521C79.0563 73.1949 78.9183 73.1662 78.7725 73.1662C78.6267 73.1662 78.4886 73.1949 78.3584 73.2521C78.2334 73.3042 78.1214 73.3797 78.0225 73.4787C77.9287 73.5777 77.8532 73.6922 77.7959 73.8225C77.7438 73.9527 77.7178 74.0907 77.7178 74.2365V79.549H75.585V71.1818H76.1006L76.6787 71.8225C76.9756 71.5725 77.3011 71.3797 77.6553 71.2443C78.0147 71.1037 78.3871 71.0334 78.7725 71.0334C79.1631 71.0334 79.5433 71.1063 79.9131 71.2521C80.2881 71.398 80.6162 71.6506 80.8975 72.01C81.0277 71.8329 81.1761 71.6818 81.3428 71.5568C81.5095 71.4318 81.6839 71.3303 81.8662 71.2521C82.0537 71.174 82.2464 71.1193 82.4444 71.0881C82.6423 71.0516 82.8376 71.0334 83.0303 71.0334C83.473 71.0334 83.8871 71.1167 84.2725 71.2834C84.6631 71.4501 85.0017 71.6792 85.2881 71.9709C85.5798 72.2574 85.8089 72.5959 85.9756 72.9865C86.1423 73.3771 86.2256 73.7938 86.2256 74.2365V79.549ZM91.1162 77.5021C91.1996 77.5282 91.2829 77.5464 91.3662 77.5568C91.4496 77.562 91.5329 77.5646 91.6162 77.5646C91.8246 77.5646 92.0251 77.536 92.2178 77.4787C92.4105 77.4214 92.5902 77.3407 92.7569 77.2365C92.9287 77.1271 93.0798 76.9969 93.21 76.8459C93.3454 76.6896 93.4548 76.5178 93.5381 76.3303L95.1006 77.9006C94.9027 78.1818 94.6735 78.4344 94.4131 78.6584C94.1579 78.8824 93.8793 79.0725 93.5772 79.2287C93.2803 79.385 92.9652 79.5021 92.6319 79.5803C92.3037 79.6636 91.9652 79.7053 91.6162 79.7053C91.0277 79.7053 90.473 79.5959 89.9522 79.3771C89.4365 79.1584 88.9834 78.8537 88.5928 78.4631C88.2074 78.0725 87.9027 77.6089 87.6787 77.0725C87.4548 76.5308 87.3428 75.937 87.3428 75.2912C87.3428 74.6297 87.4548 74.0256 87.6787 73.4787C87.9027 72.9318 88.2074 72.4657 88.5928 72.0803C88.9834 71.6949 89.4365 71.3954 89.9522 71.1818C90.473 70.9683 91.0277 70.8615 91.6162 70.8615C91.9652 70.8615 92.3063 70.9032 92.6397 70.9865C92.973 71.0699 93.2881 71.1896 93.585 71.3459C93.8871 71.5021 94.1683 71.6949 94.4287 71.924C94.6892 72.148 94.9183 72.4006 95.1162 72.6818L91.1162 77.5021ZM92.21 73.1037C92.111 73.0672 92.0121 73.0438 91.9131 73.0334C91.8194 73.023 91.7204 73.0178 91.6162 73.0178C91.3246 73.0178 91.0485 73.0725 90.7881 73.1818C90.5329 73.286 90.3089 73.437 90.1162 73.635C89.9287 73.8329 89.7803 74.0725 89.6709 74.3537C89.5615 74.6297 89.5069 74.9422 89.5069 75.2912C89.5069 75.3693 89.5095 75.4579 89.5147 75.5568C89.5251 75.6558 89.5381 75.7574 89.5537 75.8615C89.5746 75.9605 89.598 76.0568 89.624 76.1506C89.6501 76.2443 89.6839 76.3277 89.7256 76.4006L92.21 73.1037Z" fill="black"/>
</svg>